<?xml version="1.0" encoding="UTF-8"?>
<svg id="Layer_1" data-name="Layer 1" xmlns="http://www.w3.org/2000/svg" viewBox="0 0 32 32">
  <defs>
    <style>
      .cls-1 {
        fill: #004d93;
      }

      .cls-2 {
        fill: #fff;
      }
    </style>
  </defs>
  <rect class="cls-1" x="0" y="0" width="32" height="32" rx="4" ry="4"/>
  <path class="cls-2" d="m5.27,21.9v-5.43h18.29c-.66,1.19-.93,2.39-.93,3.71v2.65c.53-.13,1.06-.4,1.59-.66l1.33-.66,1.06.53v-1.86c0-1.99,1.59-3.71,3.71-3.71v-3.98h-14.18v-2.52h1.99v-3.98H1.29v3.98h1.99v2.39h-1.99v10.73c1.33,0,2.78-.53,3.58-.93l.4-.27Zm2.12-11.93h4.77v2.39h-4.77v-2.39Zm19.08,12.99l-.93-.4-.93.4c-.8.4-2.39,1.06-3.98,1.06s-3.18-.66-3.98-1.06l-.8-.4-.93.4c-.8.4-2.39,1.06-3.98,1.06s-3.18-.66-3.98-1.06l-.93-.4-.8.4c-.8.4-2.39,1.06-3.98,1.06v3.98c1.72,0,3.31-.4,4.9-1.06,1.59.66,3.18,1.06,4.9,1.06s3.31-.4,4.9-1.06c1.59.66,3.18,1.06,4.9,1.06s3.31-.4,4.9-1.06c1.59.66,3.18,1.06,4.9,1.06v-3.98c-1.86,0-3.45-.66-4.24-1.06Z"/>
</svg>