<?xml version="1.0" encoding="UTF-8" standalone="no"?>
<svg
   id="Layer_1"
   data-name="Layer 1"
   viewBox="0 0 200 165"
   style="zoom: 1;"
   version="1.1"
   sodipodi:docname="epinio.svg"
   inkscape:version="1.1.2 (b8e25be8, 2022-02-05)"
   fill="#fff" fill-rule="evenodd" stroke="#000" 
   xmlns:inkscape="http://www.inkscape.org/namespaces/inkscape"
   xmlns:sodipodi="http://sodipodi.sourceforge.net/DTD/sodipodi-0.dtd"
   xmlns="http://www.w3.org/2000/svg"
   xmlns:svg="http://www.w3.org/2000/svg">
  <sodipodi:namedview
     id="namedview61"
     pagecolor="#ffffff"
     bordercolor="#666666"
     borderopacity="1.0"
     inkscape:pageshadow="2"
     inkscape:pageopacity="0.0"
     inkscape:pagecheckerboard="0"
     showgrid="false"
     inkscape:zoom="5.1090909"
     inkscape:cx="61.36121"
     inkscape:cy="82.5"
     inkscape:window-width="1692"
     inkscape:window-height="1027"
     inkscape:window-x="0"
     inkscape:window-y="25"
     inkscape:window-maximized="0"
     inkscape:current-layer="Layer_1" />
  <defs
     id="defs54">
  </defs>
  <path
     d="M47.47705,106.63965 V79.39258 H138.4375 A38.13967,38.13967 0 0 0 133.749,97.75879 v13.209 a54.28243,54.28243 0 0 0 8.01612,-3.15918 l6.584,-3.21777 l5.3999,2.63721 V97.75879 a18.38728,18.38728 0 0 1 18.36621,-18.36621 v-20 H101.63916 V47.46484 h10 v-20 H27.47705 v20 H37.69336 V59.39258 H27.47705 v53.14258 c6.8833,0 13.99609,-2.96192 17.60791,-4.72657 M57.69336,47.46484 h23.9458 V59.39258 H57.69336 "
     visibility="visible"
     id="path56"
     />
  <path
     d="M152.73975,112.2998l-4.39014-2.14453-4.38916,2.14551c-4.00049,1.95508-11.88916,5.23438-19.77881,5.23438-7.88867,0-15.77881-3.2793-19.77978-5.23438l-4.39063-2.14551-4.39014,2.14551c-4.00048,1.95508-11.88867,5.23438-19.77734,5.23438-7.88623,0-15.78027-3.28028-19.78369-5.23536l-4.39014-2.14453-4.38916,2.14551c-4.00049,1.95508-11.91455,5.23438-19.80371,5.23438v20a64.07656,64.07656,0,0,0,24.19531-5.27832,63.97238,63.97238,0,0,0,24.17139,5.27832,63.93549,63.93549,0,0,0,24.16846-5.27735,63.94492,63.94492,0,0,0,24.16943,5.27735,63.94139,63.94139,0,0,0,24.17041-5.27832,63.97187,63.97187,0,0,0,24.1709,5.27832v-20C164.63721,117.53516,156.74316,114.25488,152.73975,112.2998Z"
     id="path58"
     />
</svg>
